<svg width="1440" height="105" viewBox="0 0 1440 105" fill="none" xmlns="http://www.w3.org/2000/svg">
<path d="M0 100.992V34.4628C1.19767 34.1678 3.04671 33.7089 5.32649 33.1599C26.0231 28.1532 41.6454 25.2279 44.4399 24.687C79.372 17.935 98.5138 0.571398 129.317 0.0141896C176.194 -0.846206 221.632 37.7077 247.34 37.6749C266.009 37.6503 280.959 31.816 280.959 31.816C293.766 27.596 298.578 23.3596 309.567 18.148C309.567 18.148 328.215 9.30646 355.341 5.17656C407.335 -2.73088 427.569 35.3723 487.673 32.6518C496.456 32.2503 512.604 30.6934 535.958 32.6518C550.772 33.8974 562.696 36.077 570.292 37.6749C570.26 58.7833 570.229 79.8916 570.197 101H0V100.992Z" fill="white"/>
<path d="M482.555 100.992V34.4628C483.752 34.1678 485.601 33.7089 487.881 33.1599C508.578 28.1532 524.2 25.2279 526.995 24.687C561.927 17.935 581.068 0.571398 611.872 0.0141896C658.749 -0.846206 704.187 37.7077 729.895 37.6749C748.564 37.6503 763.514 31.816 763.514 31.816C776.321 27.596 781.132 23.3596 792.121 18.148C792.121 18.148 810.769 9.30646 837.896 5.17656C889.889 -2.73088 910.124 35.3723 970.228 32.6518C979.011 32.2503 995.158 30.6934 1018.51 32.6518C1033.33 33.8974 1045.25 36.077 1052.85 37.6749C1052.81 58.7833 1052.78 79.8916 1052.75 101H482.555V100.992Z" fill="white"/>
<path d="M955.708 104.992V38.4628C956.906 38.1678 958.755 37.7089 961.034 37.1599C981.731 32.1532 997.353 29.2279 1000.15 28.687C1035.08 21.935 1054.22 4.5714 1085.03 4.01419C1131.9 3.15379 1177.34 41.7077 1203.05 41.6749C1221.72 41.6503 1236.67 35.816 1236.67 35.816C1249.47 31.596 1254.29 27.3596 1265.27 22.148C1265.27 22.148 1283.92 13.3065 1311.05 9.17656C1363.04 1.26912 1383.28 39.3723 1443.38 36.6518C1452.16 36.2503 1468.31 34.6934 1491.67 36.6518C1506.48 37.8974 1518.4 40.077 1526 41.6749C1525.97 62.7833 1525.94 83.8916 1525.91 105H955.708V104.992Z" fill="white"/>
</svg>
