<svg width="1440" height="87" viewBox="0 0 1440 87" fill="none" xmlns="http://www.w3.org/2000/svg">
<path d="M-33 83.9932V28.6621C-31.4711 28.4168 -29.1108 28.0351 -26.2005 27.5785C0.219536 23.4146 20.162 20.9816 23.7294 20.5318C68.3216 14.9162 92.7568 0.475222 132.078 0.0118013C191.919 -0.703775 249.923 31.3609 282.74 31.3336C306.571 31.3132 325.656 26.4609 325.656 26.4609C342.004 22.9511 348.146 19.4278 362.174 15.0934C362.174 15.0934 385.979 7.74002 420.607 4.30526C486.979 -2.27123 512.809 29.4186 589.534 27.156C600.746 26.8221 621.359 25.5272 651.172 27.156C670.082 28.1919 685.304 30.0047 695 31.3336C694.96 48.8891 694.919 66.4445 694.879 84H-33V83.9932Z" fill="#F91227"/>
<path d="M583 83.9932V28.6621C584.529 28.4168 586.889 28.0351 589.799 27.5785C616.22 23.4146 636.162 20.9816 639.729 20.5318C684.322 14.9162 708.757 0.475222 748.078 0.0118013C807.919 -0.703775 865.923 31.3609 898.74 31.3336C922.571 31.3132 941.656 26.4609 941.656 26.4609C958.004 22.9511 964.146 19.4278 978.174 15.0934C978.174 15.0934 1001.98 7.74002 1036.61 4.30526C1102.98 -2.27123 1128.81 29.4186 1205.53 27.156C1216.75 26.8221 1237.36 25.5272 1267.17 27.156C1286.08 28.1919 1301.3 30.0047 1311 31.3336C1310.96 48.8891 1310.92 66.4445 1310.88 84H583V83.9932Z" fill="#F91227"/>
<path d="M1187 86.9932V31.6621C1188.53 31.4168 1190.89 31.0351 1193.8 30.5785C1220.22 26.4146 1240.16 23.9816 1243.73 23.5318C1288.32 17.9162 1312.76 3.47522 1352.08 3.0118C1411.92 2.29623 1469.92 34.3609 1502.74 34.3336C1526.57 34.3132 1545.66 29.4609 1545.66 29.4609C1562 25.9511 1568.15 22.4278 1582.17 18.0934C1582.17 18.0934 1605.98 10.74 1640.61 7.30526C1706.98 0.728773 1732.81 32.4186 1809.53 30.156C1820.75 29.8221 1841.36 28.5272 1871.17 30.156C1890.08 31.1919 1905.3 33.0047 1915 34.3336C1914.96 51.8891 1914.92 69.4445 1914.88 87H1187V86.9932Z" fill="#F91227"/>
</svg>
